<mxfile host="app.diagrams.net" modified="2021-12-13T10:03:26.669Z" agent="5.0 (Macintosh; Intel Mac OS X 10_14_6) AppleWebKit/537.36 (KHTML, like Gecko) Chrome/96.0.4664.55 Safari/537.36" etag="hVVPdiygxTP48zLDCqxg" version="15.9.4" type="github">
  <diagram id="C5RBs43oDa-KdzZeNtuy" name="Page-1">
    <mxGraphModel dx="2253" dy="794" grid="1" gridSize="10" guides="1" tooltips="1" connect="1" arrows="1" fold="1" page="1" pageScale="1" pageWidth="827" pageHeight="1169" math="0" shadow="0">
      <root>
        <mxCell id="WIyWlLk6GJQsqaUBKTNV-0" />
        <mxCell id="WIyWlLk6GJQsqaUBKTNV-1" parent="WIyWlLk6GJQsqaUBKTNV-0" />
        <mxCell id="EKbaG_AHK5jS7-pTz9Wg-4" value="" style="rounded=0;whiteSpace=wrap;html=1;fillColor=#dae8fc;strokeColor=#6c8ebf;" vertex="1" parent="WIyWlLk6GJQsqaUBKTNV-1">
          <mxGeometry x="71" y="220" width="20" height="20" as="geometry" />
        </mxCell>
        <mxCell id="EKbaG_AHK5jS7-pTz9Wg-5" value="" style="rounded=0;whiteSpace=wrap;html=1;fillColor=#dae8fc;strokeColor=#6c8ebf;" vertex="1" parent="WIyWlLk6GJQsqaUBKTNV-1">
          <mxGeometry x="101" y="220" width="20" height="20" as="geometry" />
        </mxCell>
        <mxCell id="EKbaG_AHK5jS7-pTz9Wg-6" value="" style="rounded=0;whiteSpace=wrap;html=1;fillColor=#dae8fc;strokeColor=#6c8ebf;" vertex="1" parent="WIyWlLk6GJQsqaUBKTNV-1">
          <mxGeometry x="131" y="220" width="20" height="20" as="geometry" />
        </mxCell>
        <mxCell id="EKbaG_AHK5jS7-pTz9Wg-7" value="" style="rounded=0;whiteSpace=wrap;html=1;fillColor=#dae8fc;strokeColor=#6c8ebf;" vertex="1" parent="WIyWlLk6GJQsqaUBKTNV-1">
          <mxGeometry x="161" y="220" width="20" height="20" as="geometry" />
        </mxCell>
        <mxCell id="EKbaG_AHK5jS7-pTz9Wg-8" value="" style="rounded=0;whiteSpace=wrap;html=1;fillColor=#dae8fc;strokeColor=#6c8ebf;" vertex="1" parent="WIyWlLk6GJQsqaUBKTNV-1">
          <mxGeometry x="161" y="190" width="20" height="20" as="geometry" />
        </mxCell>
        <mxCell id="EKbaG_AHK5jS7-pTz9Wg-9" value="" style="rounded=0;whiteSpace=wrap;html=1;fillColor=#dae8fc;strokeColor=#6c8ebf;" vertex="1" parent="WIyWlLk6GJQsqaUBKTNV-1">
          <mxGeometry x="161" y="160" width="20" height="20" as="geometry" />
        </mxCell>
        <mxCell id="EKbaG_AHK5jS7-pTz9Wg-10" value="" style="rounded=0;whiteSpace=wrap;html=1;fillColor=#dae8fc;strokeColor=#6c8ebf;" vertex="1" parent="WIyWlLk6GJQsqaUBKTNV-1">
          <mxGeometry x="131" y="160" width="20" height="20" as="geometry" />
        </mxCell>
        <mxCell id="EKbaG_AHK5jS7-pTz9Wg-11" value="" style="rounded=0;whiteSpace=wrap;html=1;fillColor=#dae8fc;strokeColor=#6c8ebf;" vertex="1" parent="WIyWlLk6GJQsqaUBKTNV-1">
          <mxGeometry x="131" y="190" width="20" height="20" as="geometry" />
        </mxCell>
        <mxCell id="EKbaG_AHK5jS7-pTz9Wg-12" value="" style="rounded=0;whiteSpace=wrap;html=1;fillColor=#dae8fc;strokeColor=#6c8ebf;" vertex="1" parent="WIyWlLk6GJQsqaUBKTNV-1">
          <mxGeometry x="101" y="160" width="20" height="20" as="geometry" />
        </mxCell>
        <mxCell id="EKbaG_AHK5jS7-pTz9Wg-13" value="slot_1" style="text;html=1;strokeColor=none;fillColor=none;align=center;verticalAlign=middle;whiteSpace=wrap;rounded=0;" vertex="1" parent="WIyWlLk6GJQsqaUBKTNV-1">
          <mxGeometry x="11" y="155" width="60" height="30" as="geometry" />
        </mxCell>
        <mxCell id="EKbaG_AHK5jS7-pTz9Wg-14" value="slot_2" style="text;html=1;strokeColor=none;fillColor=none;align=center;verticalAlign=middle;whiteSpace=wrap;rounded=0;" vertex="1" parent="WIyWlLk6GJQsqaUBKTNV-1">
          <mxGeometry x="11" y="185" width="60" height="30" as="geometry" />
        </mxCell>
        <mxCell id="EKbaG_AHK5jS7-pTz9Wg-15" value="slot_3" style="text;html=1;strokeColor=none;fillColor=none;align=center;verticalAlign=middle;whiteSpace=wrap;rounded=0;" vertex="1" parent="WIyWlLk6GJQsqaUBKTNV-1">
          <mxGeometry x="11" y="215" width="60" height="30" as="geometry" />
        </mxCell>
        <mxCell id="EKbaG_AHK5jS7-pTz9Wg-16" value="" style="shape=curlyBracket;whiteSpace=wrap;html=1;rounded=1;flipH=1;" vertex="1" parent="WIyWlLk6GJQsqaUBKTNV-1">
          <mxGeometry x="191" y="150" width="20" height="100" as="geometry" />
        </mxCell>
        <mxCell id="EKbaG_AHK5jS7-pTz9Wg-17" value="" style="rounded=0;whiteSpace=wrap;html=1;fillColor=#f8cecc;strokeColor=#b85450;" vertex="1" parent="WIyWlLk6GJQsqaUBKTNV-1">
          <mxGeometry x="131" y="300" width="20" height="20" as="geometry" />
        </mxCell>
        <mxCell id="EKbaG_AHK5jS7-pTz9Wg-18" value="" style="rounded=0;whiteSpace=wrap;html=1;fillColor=#f8cecc;strokeColor=#b85450;" vertex="1" parent="WIyWlLk6GJQsqaUBKTNV-1">
          <mxGeometry x="161" y="300" width="20" height="20" as="geometry" />
        </mxCell>
        <mxCell id="EKbaG_AHK5jS7-pTz9Wg-20" value="BroadCast&lt;br&gt;Connect" style="ellipse;whiteSpace=wrap;html=1;aspect=fixed;" vertex="1" parent="WIyWlLk6GJQsqaUBKTNV-1">
          <mxGeometry x="328" y="210" width="80" height="80" as="geometry" />
        </mxCell>
        <mxCell id="EKbaG_AHK5jS7-pTz9Wg-21" value="" style="endArrow=classic;html=1;rounded=0;exitX=0.1;exitY=0.5;exitDx=0;exitDy=0;exitPerimeter=0;entryX=0;entryY=0;entryDx=0;entryDy=0;" edge="1" parent="WIyWlLk6GJQsqaUBKTNV-1" source="EKbaG_AHK5jS7-pTz9Wg-16" target="EKbaG_AHK5jS7-pTz9Wg-20">
          <mxGeometry width="50" height="50" relative="1" as="geometry">
            <mxPoint x="421" y="390" as="sourcePoint" />
            <mxPoint x="471" y="340" as="targetPoint" />
          </mxGeometry>
        </mxCell>
        <mxCell id="EKbaG_AHK5jS7-pTz9Wg-30" value="REBALANCE" style="edgeLabel;html=1;align=center;verticalAlign=middle;resizable=0;points=[];" vertex="1" connectable="0" parent="EKbaG_AHK5jS7-pTz9Wg-21">
          <mxGeometry x="-0.2713" y="2" relative="1" as="geometry">
            <mxPoint as="offset" />
          </mxGeometry>
        </mxCell>
        <mxCell id="EKbaG_AHK5jS7-pTz9Wg-22" value="BROADCAST" style="endArrow=classic;html=1;rounded=0;entryX=0;entryY=1;entryDx=0;entryDy=0;" edge="1" parent="WIyWlLk6GJQsqaUBKTNV-1" target="EKbaG_AHK5jS7-pTz9Wg-20">
          <mxGeometry width="50" height="50" relative="1" as="geometry">
            <mxPoint x="201" y="310" as="sourcePoint" />
            <mxPoint x="471" y="340" as="targetPoint" />
          </mxGeometry>
        </mxCell>
        <mxCell id="EKbaG_AHK5jS7-pTz9Wg-23" value="" style="shape=curlyBracket;whiteSpace=wrap;html=1;rounded=1;" vertex="1" parent="WIyWlLk6GJQsqaUBKTNV-1">
          <mxGeometry x="507" y="220" width="20" height="60" as="geometry" />
        </mxCell>
        <mxCell id="EKbaG_AHK5jS7-pTz9Wg-24" value="" style="endArrow=classic;html=1;rounded=0;exitX=1;exitY=0.5;exitDx=0;exitDy=0;entryX=0.1;entryY=0.5;entryDx=0;entryDy=0;entryPerimeter=0;" edge="1" parent="WIyWlLk6GJQsqaUBKTNV-1" source="EKbaG_AHK5jS7-pTz9Wg-20" target="EKbaG_AHK5jS7-pTz9Wg-23">
          <mxGeometry width="50" height="50" relative="1" as="geometry">
            <mxPoint x="468" y="380" as="sourcePoint" />
            <mxPoint x="518" y="330" as="targetPoint" />
          </mxGeometry>
        </mxCell>
        <mxCell id="EKbaG_AHK5jS7-pTz9Wg-31" value="REBLANCE" style="edgeLabel;html=1;align=center;verticalAlign=middle;resizable=0;points=[];" vertex="1" connectable="0" parent="EKbaG_AHK5jS7-pTz9Wg-24">
          <mxGeometry x="-0.1321" y="1" relative="1" as="geometry">
            <mxPoint as="offset" />
          </mxGeometry>
        </mxCell>
        <mxCell id="EKbaG_AHK5jS7-pTz9Wg-26" value="slot_m" style="text;html=1;strokeColor=none;fillColor=none;align=center;verticalAlign=middle;whiteSpace=wrap;rounded=0;" vertex="1" parent="WIyWlLk6GJQsqaUBKTNV-1">
          <mxGeometry x="11" y="295" width="60" height="30" as="geometry" />
        </mxCell>
        <mxCell id="EKbaG_AHK5jS7-pTz9Wg-27" value="" style="rounded=0;whiteSpace=wrap;html=1;fillColor=#dae8fc;strokeColor=#6c8ebf;" vertex="1" parent="WIyWlLk6GJQsqaUBKTNV-1">
          <mxGeometry x="540" y="225" width="20" height="20" as="geometry" />
        </mxCell>
        <mxCell id="EKbaG_AHK5jS7-pTz9Wg-28" value="" style="rounded=0;whiteSpace=wrap;html=1;fillColor=#dae8fc;strokeColor=#6c8ebf;" vertex="1" parent="WIyWlLk6GJQsqaUBKTNV-1">
          <mxGeometry x="570" y="225" width="20" height="20" as="geometry" />
        </mxCell>
        <mxCell id="EKbaG_AHK5jS7-pTz9Wg-29" value="" style="rounded=0;whiteSpace=wrap;html=1;fillColor=#dae8fc;strokeColor=#6c8ebf;" vertex="1" parent="WIyWlLk6GJQsqaUBKTNV-1">
          <mxGeometry x="600" y="225" width="20" height="20" as="geometry" />
        </mxCell>
        <mxCell id="EKbaG_AHK5jS7-pTz9Wg-32" value="" style="rounded=0;whiteSpace=wrap;html=1;fillColor=#dae8fc;strokeColor=#6c8ebf;" vertex="1" parent="WIyWlLk6GJQsqaUBKTNV-1">
          <mxGeometry x="540" y="255" width="20" height="20" as="geometry" />
        </mxCell>
        <mxCell id="EKbaG_AHK5jS7-pTz9Wg-33" value="" style="rounded=0;whiteSpace=wrap;html=1;fillColor=#dae8fc;strokeColor=#6c8ebf;" vertex="1" parent="WIyWlLk6GJQsqaUBKTNV-1">
          <mxGeometry x="570" y="255" width="20" height="20" as="geometry" />
        </mxCell>
        <mxCell id="EKbaG_AHK5jS7-pTz9Wg-34" value="" style="rounded=0;whiteSpace=wrap;html=1;fillColor=#dae8fc;strokeColor=#6c8ebf;" vertex="1" parent="WIyWlLk6GJQsqaUBKTNV-1">
          <mxGeometry x="600" y="255" width="20" height="20" as="geometry" />
        </mxCell>
        <mxCell id="EKbaG_AHK5jS7-pTz9Wg-35" value="" style="rounded=0;whiteSpace=wrap;html=1;fillColor=#dae8fc;strokeColor=#6c8ebf;" vertex="1" parent="WIyWlLk6GJQsqaUBKTNV-1">
          <mxGeometry x="631" y="225" width="20" height="20" as="geometry" />
        </mxCell>
        <mxCell id="EKbaG_AHK5jS7-pTz9Wg-38" value="" style="rounded=0;whiteSpace=wrap;html=1;fillColor=#dae8fc;strokeColor=#6c8ebf;" vertex="1" parent="WIyWlLk6GJQsqaUBKTNV-1">
          <mxGeometry x="631" y="255" width="20" height="20" as="geometry" />
        </mxCell>
        <mxCell id="EKbaG_AHK5jS7-pTz9Wg-39" value="" style="rounded=0;whiteSpace=wrap;html=1;fillColor=#dae8fc;strokeColor=#6c8ebf;" vertex="1" parent="WIyWlLk6GJQsqaUBKTNV-1">
          <mxGeometry x="661" y="255" width="20" height="20" as="geometry" />
        </mxCell>
        <mxCell id="EKbaG_AHK5jS7-pTz9Wg-40" value="" style="rounded=0;whiteSpace=wrap;html=1;fillColor=#f8cecc;strokeColor=#b85450;" vertex="1" parent="WIyWlLk6GJQsqaUBKTNV-1">
          <mxGeometry x="661" y="225" width="20" height="20" as="geometry" />
        </mxCell>
        <mxCell id="EKbaG_AHK5jS7-pTz9Wg-41" value="" style="rounded=0;whiteSpace=wrap;html=1;fillColor=#f8cecc;strokeColor=#b85450;" vertex="1" parent="WIyWlLk6GJQsqaUBKTNV-1">
          <mxGeometry x="691" y="255" width="20" height="20" as="geometry" />
        </mxCell>
        <mxCell id="EKbaG_AHK5jS7-pTz9Wg-42" value="slot_x" style="text;html=1;strokeColor=none;fillColor=none;align=center;verticalAlign=middle;whiteSpace=wrap;rounded=0;" vertex="1" parent="WIyWlLk6GJQsqaUBKTNV-1">
          <mxGeometry x="721" y="220" width="60" height="30" as="geometry" />
        </mxCell>
        <mxCell id="EKbaG_AHK5jS7-pTz9Wg-43" value="slot_y" style="text;html=1;strokeColor=none;fillColor=none;align=center;verticalAlign=middle;whiteSpace=wrap;rounded=0;" vertex="1" parent="WIyWlLk6GJQsqaUBKTNV-1">
          <mxGeometry x="721" y="250" width="60" height="30" as="geometry" />
        </mxCell>
        <mxCell id="EKbaG_AHK5jS7-pTz9Wg-44" value="" style="shape=curlyBracket;whiteSpace=wrap;html=1;rounded=1;" vertex="1" parent="WIyWlLk6GJQsqaUBKTNV-1">
          <mxGeometry x="1" y="150" width="20" height="100" as="geometry" />
        </mxCell>
        <mxCell id="EKbaG_AHK5jS7-pTz9Wg-45" value="" style="endArrow=classic;html=1;rounded=0;entryX=0.1;entryY=0.5;entryDx=0;entryDy=0;entryPerimeter=0;" edge="1" parent="WIyWlLk6GJQsqaUBKTNV-1" target="EKbaG_AHK5jS7-pTz9Wg-44">
          <mxGeometry width="50" height="50" relative="1" as="geometry">
            <mxPoint x="-49" y="200" as="sourcePoint" />
            <mxPoint x="461" y="280" as="targetPoint" />
          </mxGeometry>
        </mxCell>
        <mxCell id="EKbaG_AHK5jS7-pTz9Wg-46" value="" style="endArrow=classic;html=1;rounded=0;" edge="1" parent="WIyWlLk6GJQsqaUBKTNV-1">
          <mxGeometry width="50" height="50" relative="1" as="geometry">
            <mxPoint x="-50" y="310" as="sourcePoint" />
            <mxPoint y="310" as="targetPoint" />
          </mxGeometry>
        </mxCell>
        <mxCell id="EKbaG_AHK5jS7-pTz9Wg-47" value="stream_1" style="shape=dataStorage;whiteSpace=wrap;html=1;fixedSize=1;size=10;fillColor=#d5e8d4;strokeColor=#82b366;" vertex="1" parent="WIyWlLk6GJQsqaUBKTNV-1">
          <mxGeometry x="-120" y="180" width="70" height="40" as="geometry" />
        </mxCell>
        <mxCell id="EKbaG_AHK5jS7-pTz9Wg-48" value="stream_2" style="shape=dataStorage;whiteSpace=wrap;html=1;fixedSize=1;size=10;fillColor=#d5e8d4;strokeColor=#82b366;" vertex="1" parent="WIyWlLk6GJQsqaUBKTNV-1">
          <mxGeometry x="-120" y="290" width="70" height="40" as="geometry" />
        </mxCell>
      </root>
    </mxGraphModel>
  </diagram>
</mxfile>
